<svg width="617" height="355" viewBox="0 0 617 355" fill="none" xmlns="http://www.w3.org/2000/svg">
<path d="M36.4219 199.578V145.281H103.219C118.323 145.281 130.107 141.44 138.57 133.758C147.164 126.076 151.461 114.943 151.461 100.359V99.9688C151.461 85.2552 147.164 74.1224 138.57 66.5703C130.107 59.0182 118.323 55.2422 103.219 55.2422H36.4219V0.164062H120.406C141.37 0.164062 159.599 4.33073 175.094 12.6641C190.589 20.8672 202.568 32.4557 211.031 47.4297C219.625 62.2734 223.922 79.7865 223.922 99.9688V100.359C223.922 120.411 219.625 137.924 211.031 152.898C202.568 167.742 190.589 179.266 175.094 187.469C159.599 195.542 141.37 199.578 120.406 199.578H36.4219ZM0.289062 282V0.164062H71.9688V282H0.289062ZM251.07 282V69.3047H320.406V107H321.773C324.768 93.4583 330.302 83.0417 338.375 75.75C346.578 68.4583 356.995 64.8125 369.625 64.8125C372.88 64.8125 376.005 65.0729 379 65.5938C382.125 65.9844 384.99 66.6354 387.594 67.5469V126.922C384.729 125.62 381.344 124.643 377.438 123.992C373.661 123.341 369.69 123.016 365.523 123.016C355.758 123.016 347.49 124.773 340.719 128.289C334.078 131.805 329 137.013 325.484 143.914C322.099 150.685 320.406 159.083 320.406 169.109V282H251.07ZM507.125 354.852C486.682 354.852 468.844 352.117 453.609 346.648C438.505 341.18 426.526 333.693 417.672 324.188C408.818 314.682 403.609 304.005 402.047 292.156L401.852 290.398H468.844L469.234 291.57C471.057 295.607 475.159 299.448 481.539 303.094C487.919 306.74 496.578 308.562 507.516 308.562C520.536 308.562 530.302 305.633 536.812 299.773C543.453 293.914 546.773 286.232 546.773 276.727V241.375H545.406C542.021 248.667 537.203 254.917 530.953 260.125C524.703 265.333 517.346 269.37 508.883 272.234C500.419 275.099 491.044 276.531 480.758 276.531C463.049 276.531 447.88 272.43 435.25 264.227C422.75 256.023 413.18 244.24 406.539 228.875C399.898 213.38 396.578 194.695 396.578 172.82V172.625C396.578 149.578 399.964 130.112 406.734 114.227C413.505 98.2109 423.206 85.9714 435.836 77.5078C448.466 69.0443 463.766 64.8125 481.734 64.8125C491.76 64.8125 500.875 66.5052 509.078 69.8906C517.411 73.1458 524.638 77.8333 530.758 83.9531C536.878 90.0729 541.695 97.3646 545.211 105.828H546.773V69.3047H616.109V275.945C616.109 291.44 611.682 305.112 602.828 316.961C593.974 328.81 581.409 338.055 565.133 344.695C548.857 351.466 529.521 354.852 507.125 354.852ZM507.125 228.484C515.198 228.484 522.229 226.336 528.219 222.039C534.208 217.742 538.831 211.622 542.086 203.68C545.471 195.607 547.164 186.036 547.164 174.969V174.773C547.164 163.576 545.471 154.005 542.086 146.062C538.701 137.99 534.013 131.87 528.023 127.703C522.164 123.406 515.198 121.258 507.125 121.258C499.052 121.258 491.956 123.406 485.836 127.703C479.846 131.87 475.159 137.924 471.773 145.867C468.518 153.81 466.891 163.38 466.891 174.578V174.773C466.891 185.841 468.518 195.411 471.773 203.484C475.029 211.557 479.716 217.742 485.836 222.039C491.956 226.336 499.052 228.484 507.125 228.484Z" fill="black"/>
</svg>
