<svg width="607" height="282" viewBox="0 0 607 282" fill="none" xmlns="http://www.w3.org/2000/svg">
<path d="M0.289062 282V0.164062H83.2969L153.805 184.148H155.172L225.68 0.164062H308.492V282H245.406V106.023H212.203L282.32 7.97656L174.898 282H133.883L26.4609 7.97656L96.5781 106.023H63.375V282H0.289062ZM337.984 282L440.328 113.445L424.117 172.43V139.227L338.18 0.164062H421.969L473.531 95.4766H506.734L460.445 123.797L526.852 0.164062H606.734L516.891 140.008V173.211L500.094 114.422L605.758 282H525.289L470.602 190.594H437.398L484.859 163.25L414.352 282H337.984Z" fill="black"/>
</svg>
