<svg width="593" height="282" viewBox="0 0 593 282" fill="none" xmlns="http://www.w3.org/2000/svg">
<path d="M0.289062 282V0.164062H71.9688V282H0.289062ZM114.742 282V0.164062H229.391C257.646 0.164062 281.865 5.5026 302.047 16.1797C322.229 26.8568 337.659 42.5469 348.336 63.25C359.013 83.8229 364.352 109.083 364.352 139.031V139.422C364.352 169.37 359.013 195.021 348.336 216.375C337.659 237.599 322.229 253.875 302.047 265.203C281.995 276.401 257.776 282 229.391 282H114.742ZM186.422 224.188H219.82C235.315 224.188 248.401 221.062 259.078 214.812C269.755 208.432 277.763 198.992 283.102 186.492C288.57 173.992 291.305 158.367 291.305 139.617V139.227C291.305 121.648 288.505 106.805 282.906 94.6953C277.307 82.5859 269.104 73.4714 258.297 67.3516C247.62 61.1016 234.794 57.9766 219.82 57.9766H186.422V224.188ZM399.508 282V0.164062H592.672V57.7812H471.188V113.445H585.445V167.352H471.188V224.383H592.672V282H399.508Z" fill="black"/>
</svg>
